HIERARCHY
ROOT Hips
{
	OFFSET -0.001795 -0.223333 0.028219
	CHANNELS 6 Xposition Yposition Zposition Zrotation Yrotation Xrotation 
	JOINT LeftUpLeg
	{
		OFFSET 0.069520 -0.091406 -0.006815
		CHANNELS 3 Zrotation Yrotation Xrotation
		JOINT LeftLeg
		{
			OFFSET 0.034277 -0.375199 -0.004496
			CHANNELS 3 Zrotation Yrotation Xrotation
			JOINT LeftFoot
			{
				OFFSET -0.013596 -0.397961 -0.043693
				CHANNELS 3 Zrotation Yrotation Xrotation
				JOINT LeftToe
				{
					OFFSET 0.026358 -0.055791 0.119288
					CHANNELS 3 Zrotation Yrotation Xrotation
					End Site
					{
						OFFSET 0.000000 0.000000 0.000000
					}
				}
			}
		}
	}
	JOINT RightUpLeg
	{
		OFFSET -0.067670 -0.090522 -0.004320
		CHANNELS 3 Zrotation Yrotation Xrotation
		JOINT RightLeg
		{
			OFFSET -0.038290 -0.382569 -0.008850
			CHANNELS 3 Zrotation Yrotation Xrotation
			JOINT RightFoot
			{
				OFFSET 0.015774 -0.398415 -0.042312
				CHANNELS 3 Zrotation Yrotation Xrotation
				JOINT RightToe
				{
					OFFSET -0.025372 -0.048144 0.123348
					CHANNELS 3 Zrotation Yrotation Xrotation
					End Site
					{
						OFFSET 0.000000 0.000000 0.000000
					}
				}
			}
		}
	}
	JOINT Spine
	{
		OFFSET -0.002533 0.108963 -0.026696
		CHANNELS 3 Zrotation Yrotation Xrotation
		JOINT Spine1
		{
			OFFSET 0.005487 0.135180 0.001092
			CHANNELS 3 Zrotation Yrotation Xrotation
			JOINT Spine2
			{
				OFFSET 0.001457 0.052922 0.025425
				CHANNELS 3 Zrotation Yrotation Xrotation
				JOINT Neck
				{
					OFFSET -0.002778 0.213870 -0.042857
					CHANNELS 3 Zrotation Yrotation Xrotation
					JOINT Head
					{
						OFFSET 0.005152 0.064970 0.051349
						CHANNELS 3 Zrotation Yrotation Xrotation
						End Site
						{
							OFFSET 0.000000 0.000000 0.000000
						}
					}
				}
				JOINT LeftShoulder
				{
					OFFSET 0.078845 0.121749 -0.034090
					CHANNELS 3 Zrotation Yrotation Xrotation
					JOINT LeftArm
					{
						OFFSET 0.090977 0.030469 -0.008868
						CHANNELS 3 Zrotation Yrotation Xrotation
						JOINT LeftForeArm
						{
							OFFSET 0.259612 -0.012772 -0.027456
							CHANNELS 3 Zrotation Yrotation Xrotation
							JOINT LeftHand
							{
								OFFSET 0.249234 0.008986 -0.001171
								CHANNELS 3 Zrotation Yrotation Xrotation
								End Site
								{
									OFFSET 0.000000 0.000000 0.000000
								}
							}
						}
					}
				}
				JOINT RightShoulder
				{
					OFFSET -0.081759 0.118833 -0.038615
					CHANNELS 3 Zrotation Yrotation Xrotation
					JOINT RightArm
					{
						OFFSET -0.096012 0.032551 -0.009143
						CHANNELS 3 Zrotation Yrotation Xrotation
						JOINT RightForeArm
						{
							OFFSET -0.253742 -0.013329 -0.021401
							CHANNELS 3 Zrotation Yrotation Xrotation
							JOINT RightHand
							{
								OFFSET -0.255298 0.007772 -0.005559
								CHANNELS 3 Zrotation Yrotation Xrotation
								End Site
								{
									OFFSET 0.000000 0.000000 0.000000
								}
							}
						}
					}
				}
			}
		}
	}
}
MOTION
Frames: 14
Frame Time: 0.050000
0.157532 0.951880 -0.016537 -3.278803 -7.868652 9.248587 10.390975 -0.018375 -12.738012 -4.534586 0.551341 -1.903345 4.135486 11.005496 16.885049 0.000000 0.000000 0.000000 -0.380461 1.753719 -16.425506 2.491369 -0.131833 3.464185 -4.371000 -15.282917 17.880522 0.000000 0.000000 0.000000 -6.046450 1.179428 28.479154 7.282754 -1.238759 -22.943894 -0.874944 -3.156124 25.707969 -3.359587 2.551711 -37.882990 0.000000 0.000000 0.000000 -19.145591 -17.259999 10.537037 -49.595696 -49.788343 14.178354 25.162435 -45.020375 -6.580266 0.000000 0.000000 0.000000 11.243197 27.349864 10.778354 56.284555 47.903474 16.148746 -25.585377 46.990534 -8.806116 0.000000 0.000000 0.000000 
0.157769 0.952013 -0.017364 -3.312277 -7.660484 9.532498 10.413592 -0.024655 -13.072791 -4.497264 0.543811 -2.034672 4.036457 10.897209 17.002107 0.000000 0.000000 0.000000 -0.349644 1.767840 -16.544207 2.460629 -0.139996 3.057485 -4.440983 -15.402690 18.106427 0.000000 0.000000 0.000000 -6.051500 1.161107 28.335171 7.146280 -1.210198 -22.849556 -0.827173 -3.054157 25.855165 -3.374144 2.583719 -37.783397 0.000000 0.000000 0.000000 -18.652168 -17.397912 10.464505 -49.765353 -50.646558 14.738443 25.122089 -44.541574 -6.505034 0.000000 0.000000 0.000000 10.909293 27.110606 10.671402 56.608676 48.453967 16.578783 -26.230957 47.299128 -9.097204 0.000000 0.000000 0.000000 
0.158103 0.952184 -0.018171 -3.389253 -7.293374 9.832118 10.450123 -0.035592 -13.411723 -4.406299 0.528820 -2.240712 3.858348 10.692173 17.108282 0.000000 0.000000 0.000000 -0.295545 1.779351 -16.642943 2.461145 -0.153153 2.615818 -4.583527 -15.621453 18.402940 0.000000 0.000000 0.000000 -5.934001 1.102674 28.375077 6.994402 -1.157067 -22.953730 -0.725577 -2.900948 25.908793 -3.374149 2.630645 -37.833696 0.000000 0.000000 0.000000 -18.105277 -17.727511 10.445297 -49.657394 -51.341717 15.104583 24.550691 -43.783054 -6.225733 0.000000 0.000000 0.000000 10.663576 26.958441 10.640751 56.258749 49.264494 16.913196 -26.508633 47.074481 -9.108986 0.000000 0.000000 0.000000 
0.158507 0.952120 -0.018846 -3.485615 -6.969402 10.184116 10.371554 -0.057155 -13.833409 -4.085398 0.490994 -2.363793 3.725270 10.536911 17.125304 0.000000 0.000000 0.000000 -0.377901 1.805428 -16.959518 2.716920 -0.186207 2.458771 -4.744133 -15.861211 18.631206 0.000000 0.000000 0.000000 -5.799783 1.027628 28.113279 6.940191 -1.129878 -23.024124 -0.680967 -2.733350 26.022689 -3.399718 2.679533 -37.724778 0.000000 0.000000 0.000000 -17.849256 -17.913346 10.420087 -49.609172 -51.856641 15.357188 23.619970 -43.056025 -5.809812 0.000000 0.000000 0.000000 10.479642 26.813303 10.620673 55.979692 49.604619 16.995424 -26.407663 47.072459 -9.009931 0.000000 0.000000 0.000000 
0.158865 0.952349 -0.019403 -3.541063 -6.639996 10.399955 10.442782 -0.061710 -14.138513 -4.110491 0.490418 -2.434262 3.561191 10.350975 17.214870 0.000000 0.000000 0.000000 -0.420539 1.805527 -17.034763 2.845513 -0.208275 2.149993 -4.879729 -16.059954 18.904832 0.000000 0.000000 0.000000 -5.729993 0.982868 28.109593 6.808729 -1.081664 -23.148680 -0.587395 -2.703012 26.094244 -3.369311 2.691443 -37.633865 0.000000 0.000000 0.000000 -17.332349 -17.752042 10.177923 -49.735337 -52.190891 15.625047 22.647474 -42.095111 -5.347691 0.000000 0.000000 0.000000 10.093386 26.575563 10.497234 55.919480 49.916737 17.148249 -25.837211 47.299578 -8.789982 0.000000 0.000000 0.000000 
0.159042 0.952472 -0.020000 -3.672076 -6.420442 10.577345 10.532338 -0.059678 -14.371957 -4.007980 0.477739 -2.490701 3.460873 10.236529 17.259627 0.000000 0.000000 0.000000 -0.443481 1.820662 -17.207479 3.103404 -0.237778 2.082674 -4.976464 -16.205348 19.114132 0.000000 0.000000 0.000000 -5.678961 0.945202 27.929807 6.813234 -1.079008 -23.115381 -0.475067 -2.432878 26.133419 -3.364968 2.730431 -37.247420 0.000000 0.000000 0.000000 -17.127500 -17.598033 9.967575 -49.456617 -52.388480 15.588245 21.431399 -41.063360 -4.824848 0.000000 0.000000 0.000000 10.058283 26.378623 10.475653 55.553173 49.803533 16.960786 -24.849724 47.700366 -8.411731 0.000000 0.000000 0.000000 
0.159001 0.952539 -0.020812 -3.680397 -6.176692 10.720309 10.572080 -0.064991 -14.583868 -4.025990 0.477213 -2.585962 3.334583 10.095541 17.345174 0.000000 0.000000 0.000000 -0.492300 1.817802 -17.257022 3.206041 -0.254297 1.825275 -5.084438 -16.356008 19.286975 0.000000 0.000000 0.000000 -5.704489 0.931229 27.807600 6.762571 -1.073785 -22.995812 -0.307460 -2.298060 26.161987 -3.252421 2.713682 -37.094758 0.000000 0.000000 0.000000 -16.872718 -17.420609 9.759634 -49.288875 -52.255970 15.437935 20.814675 -40.185692 -4.538385 0.000000 0.000000 0.000000 9.926971 26.195314 10.423185 55.328585 49.904875 16.944866 -24.157851 47.999768 -8.145457 0.000000 0.000000 0.000000 
0.158740 0.952446 -0.021828 -3.685615 -5.942809 10.867337 10.745492 -0.052459 -14.891334 -4.254929 0.498111 -2.539410 3.223383 9.971722 17.398373 0.000000 0.000000 0.000000 -0.554911 1.817024 -17.336457 3.352158 -0.274382 1.588137 -5.198897 -16.511839 19.415563 0.000000 0.000000 0.000000 -5.585968 0.876864 27.724352 6.494747 -0.999564 -23.089676 -0.256494 -2.301224 26.326945 -3.300599 2.746680 -36.990890 0.000000 0.000000 0.000000 -16.552500 -17.290376 9.608042 -48.753821 -52.292386 15.203361 20.254648 -39.140679 -4.254773 0.000000 0.000000 0.000000 9.678989 26.007183 10.327654 55.345420 50.052772 17.017288 -22.993743 48.708864 -7.752680 0.000000 0.000000 0.000000 
0.158430 0.952314 -0.022913 -3.620194 -5.718490 10.852605 10.687966 -0.066637 -15.036839 -4.222069 0.492972 -2.487859 3.105366 9.832821 17.410327 0.000000 0.000000 0.000000 -0.628069 1.798330 -17.270849 3.404474 -0.284175 1.392014 -5.314541 -16.658542 19.472668 0.000000 0.000000 0.000000 -5.579286 0.855894 27.679083 6.464147 -1.010104 -22.865235 -0.264648 -2.187163 26.252445 -3.204913 2.737967 -36.922618 0.000000 0.000000 0.000000 -16.388210 -17.324668 9.532504 -48.316052 -52.244901 14.984097 19.910862 -38.096281 -4.069767 0.000000 0.000000 0.000000 9.746670 26.180467 10.455242 55.264476 50.563271 17.321983 -22.232200 48.373099 -7.335629 0.000000 0.000000 0.000000 
0.158140 0.952188 -0.023920 -3.671100 -5.682003 10.685004 10.730272 -0.062994 -14.895271 -4.161175 0.486591 -2.530145 3.076953 9.795729 17.395962 0.000000 0.000000 0.000000 -0.785764 1.752592 -17.000926 3.842622 -0.330601 1.124970 -5.322357 -16.659761 19.518726 0.000000 0.000000 0.000000 -5.553124 0.846188 27.799578 6.459192 -1.009365 -22.876054 -0.239961 -1.862671 26.332555 -3.369113 2.853847 -36.540946 0.000000 0.000000 0.000000 -16.611650 -17.387340 9.522361 -47.635789 -52.062274 14.524410 19.231591 -37.096233 -3.790511 0.000000 0.000000 0.000000 10.098549 26.384375 10.662511 54.832560 51.042645 17.445852 -20.947512 47.437969 -6.591754 0.000000 0.000000 0.000000 
0.157791 0.952185 -0.024798 -3.533734 -5.673897 10.425232 10.592631 -0.080270 -14.625634 -4.149217 0.485338 -2.640852 3.034359 9.746949 17.453615 0.000000 0.000000 0.000000 -0.989540 1.705283 -16.752881 4.011089 -0.347865 1.064144 -5.333878 -16.661954 19.477381 0.000000 0.000000 0.000000 -5.666359 0.883299 27.972104 6.380890 -1.003638 -22.762867 -0.198683 -1.737344 26.454517 -3.575045 2.964664 -36.343875 0.000000 0.000000 0.000000 -16.844997 -17.374970 9.516976 -47.177306 -52.151722 14.332460 18.913293 -36.107017 -3.620357 0.000000 0.000000 0.000000 10.007720 26.448538 10.695656 55.131611 51.885176 18.069676 -20.286351 46.126630 -6.091326 0.000000 0.000000 0.000000 
0.157287 0.952210 -0.025591 -3.508913 -5.671775 9.856916 10.642723 -0.073284 -14.086700 -4.254917 0.496602 -2.591469 2.988664 9.679368 17.403365 0.000000 0.000000 0.000000 -1.021694 1.624978 -16.057894 4.150004 -0.363494 0.850256 -5.308746 -16.600216 19.413364 0.000000 0.000000 0.000000 -5.629153 0.873715 28.262161 6.194081 -1.011542 -22.252776 -0.211231 -1.495450 26.259565 -3.729046 3.065556 -35.586100 0.000000 0.000000 0.000000 -17.125248 -17.247380 9.419037 -46.506023 -51.881124 13.875118 18.625418 -35.681180 -3.525537 0.000000 0.000000 0.000000 10.399288 26.460005 10.796507 55.181260 52.359172 18.429041 -19.401887 44.702660 -5.521067 0.000000 0.000000 0.000000 
0.156753 0.952189 -0.026377 -3.508063 -5.874872 9.477045 10.611958 -0.068580 -13.580850 -4.159035 0.488968 -2.749348 3.051976 9.751259 17.429795 0.000000 0.000000 0.000000 -1.135986 1.582693 -15.735098 4.454193 -0.390304 0.899272 -5.204079 -16.449316 19.317750 0.000000 0.000000 0.000000 -5.817497 0.944102 28.348655 6.129114 -1.013277 -22.138237 -0.107877 -1.122361 26.488151 -3.757954 3.116801 -35.176594 0.000000 0.000000 0.000000 -17.394611 -17.162498 9.348072 -46.393933 -51.193246 13.422495 18.522738 -35.523713 -3.496882 0.000000 0.000000 0.000000 10.770544 26.576503 10.953608 54.956374 52.499087 18.423338 -18.885649 43.688461 -5.161707 0.000000 0.000000 0.000000 
0.156303 0.952278 -0.027138 -3.543460 -5.884195 9.005664 10.703685 -0.056564 -13.137234 -4.219617 0.495680 -2.694620 3.017953 9.701834 17.399405 0.000000 0.000000 0.000000 -1.151164 1.533604 -15.299225 4.652014 -0.409564 0.965216 -5.185522 -16.406034 19.280644 0.000000 0.000000 0.000000 -5.752785 0.920307 28.445986 5.950921 -1.018911 -21.641580 -0.068181 -0.931268 26.321475 -4.214436 3.350645 -33.567087 0.000000 0.000000 0.000000 -17.755663 -17.127795 9.324002 -45.796467 -50.157515 12.643881 18.782608 -35.467169 -3.598581 0.000000 0.000000 0.000000 11.396460 26.615112 11.104473 54.750768 52.234922 18.226377 -18.338553 43.233659 -4.894623 0.000000 0.000000 0.000000 
